<svg width="32" height="32" viewBox="0 0 32 32" fill="none" xmlns="http://www.w3.org/2000/svg">
<rect width="32" height="32" rx="16" fill="#EF4444"/>
<path fill-rule="evenodd" clip-rule="evenodd" d="M16.0001 7.66675C20.6025 7.66675 24.3334 11.3977 24.3334 16.0001C24.3334 20.6025 20.6025 24.3334 16.0001 24.3334C11.3977 24.3334 7.66675 20.6025 7.66675 16.0001C7.66675 11.3977 11.3977 7.66675 16.0001 7.66675ZM16.0001 9.33341C12.3182 9.33341 9.33341 12.3182 9.33341 16.0001C9.33341 19.682 12.3182 22.6667 16.0001 22.6667C19.682 22.6667 22.6667 19.682 22.6667 16.0001C22.6667 12.3182 19.682 9.33341 16.0001 9.33341ZM16.0001 19.3334C16.4603 19.3334 16.8334 19.7065 16.8334 20.1667C16.8334 20.627 16.4603 21.0001 16.0001 21.0001C15.5398 21.0001 15.1667 20.627 15.1667 20.1667C15.1667 19.7065 15.5398 19.3334 16.0001 19.3334ZM16.0001 11.0001C16.4603 11.0001 16.8334 11.3732 16.8334 11.8334V16.8334C16.8334 17.2937 16.4603 17.6667 16.0001 17.6667C15.5398 17.6667 15.1667 17.2937 15.1667 16.8334V11.8334C15.1667 11.3732 15.5398 11.0001 16.0001 11.0001Z" fill="white"/>
</svg>
