<svg width="52" height="19" viewBox="0 0 52 19" fill="none" xmlns="http://www.w3.org/2000/svg">
<g id="Group 3292">
<g id="Group">
<path id="Path" d="M28.2735 0H2.28889C1.02473 0 0 0.972347 0 2.17188V16.8281C0 18.0276 1.02473 19 2.28889 19H28.2735C29.5376 19 30.5624 18.0277 30.5624 16.8281V2.17188C30.5624 0.972347 29.5376 0 28.2735 0Z" fill="#41479B"/>
<path id="Path_2" d="M30.5307 1.81289C30.3503 0.784358 29.4086 0 28.2735 0H27.6779L17.9159 6.06886V5.66405e-05H12.6465V6.06892L2.88444 5.66405e-05H2.28889C1.15373 5.66405e-05 0.212086 0.784358 0.0316965 1.81295L8.37534 7.00009H0V12.0001H8.37534L0.0316965 17.1871C0.212086 18.2156 1.15373 19 2.28889 19H2.88444L12.6465 12.9311V19H17.9159V12.9311L27.6779 19H28.2735C29.4086 19 30.3503 18.2157 30.5307 17.1871L22.187 12H30.5624V6.99997H22.187L30.5307 1.81289Z" fill="#EBEBEB"/>
<path id="Path_3" d="M16.862 0H13.7003V7.99996H0V11H13.7003V18.9999H16.862V11H30.5624V7.99996H16.862V0Z" fill="#FF4B55"/>
<path id="Shape" fill-rule="evenodd" clip-rule="evenodd" d="M29.9995 0.755863L19.8498 7.00756H17.9141L29.0624 0.140747C29.4244 0.26767 29.7467 0.479246 29.9995 0.755863ZM0.242188 1.19452L9.65742 6.99378H11.5931L0.924229 0.422344C0.636474 0.625689 0.402892 0.89014 0.242188 1.19452ZM12.6216 11.9983L1.48403 18.8582C1.12435 18.7289 0.804751 18.5158 0.554688 18.2385L10.6859 11.9983H12.6216ZM18.7422 11.9983H20.6779L30.2629 17.9019C30.0833 18.2001 29.832 18.4539 29.5295 18.6425L18.7422 11.9983Z" fill="#FF4B55"/>
</g>
<path id="Rectangle" fill-rule="evenodd" clip-rule="evenodd" d="M49.4544 7.59949C50.3617 7.59949 50.816 8.65649 50.1745 9.27467L47.056 12.2796C46.6583 12.6629 46.0135 12.6629 45.6158 12.2796L42.4974 9.27467C41.8559 8.65649 42.3102 7.59949 43.2175 7.59949L49.4544 7.59949Z" fill="white"/>
</g>
</svg>
