<svg width="15" height="15" viewBox="0 0 15 15" fill="none" xmlns="http://www.w3.org/2000/svg">
<path id="Vector" d="M13.9938 13.5968L10.7688 10.3719C11.8603 9.1767 12.4406 7.60181 12.3856 5.98419C12.3307 4.36657 11.6447 2.83472 10.4747 1.71641C9.30457 0.598097 7.74327 -0.0178397 6.12482 0.000393566C4.50637 0.0186268 2.95933 0.669582 1.81474 1.81397C0.670154 2.95836 0.0189254 4.50528 0.000406015 6.12372C-0.0181134 7.74217 0.597547 9.30359 1.71565 10.4739C2.83376 11.6441 4.36549 12.3303 5.9831 12.3856C7.60071 12.4409 9.1757 11.8608 10.3711 10.7696L13.5961 13.9947C13.6488 14.0474 13.7204 14.077 13.795 14.077C13.8696 14.077 13.9411 14.0473 13.9938 13.9946C14.0466 13.9418 14.0762 13.8703 14.0762 13.7957C14.0762 13.7211 14.0465 13.6496 13.9938 13.5968ZM0.576674 6.20192C0.576674 5.0894 0.906574 4.00186 1.52466 3.07684C2.14274 2.15181 3.02125 1.43084 4.04908 1.0051C5.07691 0.579355 6.20791 0.467961 7.29906 0.685003C8.3902 0.902045 9.39248 1.43777 10.1791 2.22444C10.9658 3.01112 11.5015 4.01339 11.7186 5.10454C11.9356 6.19568 11.8242 7.32668 11.3985 8.35452C10.9728 9.38235 10.2518 10.2609 9.32676 10.8789C8.40173 11.497 7.31419 11.8269 6.20167 11.8269C4.71034 11.8252 3.28058 11.2321 2.22605 10.1775C1.17152 9.12302 0.578349 7.69325 0.576674 6.20192Z" fill="white"/>
</svg>
