<svg width="20" height="20" viewBox="0 0 20 20" fill="none" xmlns="http://www.w3.org/2000/svg">
<path d="M19.1016 12.0427C17.8065 17.2376 12.545 20.3991 7.34952 19.1036C2.15623 17.8085 -1.00526 12.5466 0.29041 7.35222C1.58494 2.15679 6.84649 -1.00493 12.0403 0.290166C17.2354 1.58527 20.3967 6.84771 19.1015 12.0428L19.1016 12.0427H19.1016Z" fill="#F7931A"/>
<path fill-rule="evenodd" clip-rule="evenodd" d="M13.9722 8.3043C14.1652 7.01384 13.1828 6.32017 11.8393 5.85743L12.2752 4.10939L11.2111 3.84425L10.7868 5.54626C10.5071 5.47649 10.2198 5.41075 9.93427 5.34558L10.3616 3.63233L9.29819 3.36719L8.86213 5.11465C8.63064 5.06195 8.40327 5.00986 8.18268 4.95497L8.18392 4.94947L6.71652 4.58304L6.43346 5.71955C6.43346 5.71955 7.22292 5.90051 7.20629 5.91165C7.63718 6.01919 7.7151 6.30444 7.70216 6.53052L7.20572 8.52195C7.23539 8.52948 7.27388 8.54038 7.31634 8.55745L7.28542 8.54973L7.28534 8.54971C7.25911 8.54315 7.23185 8.53632 7.20387 8.52962L6.50802 11.3193C6.45536 11.4502 6.3217 11.6467 6.02044 11.5721C6.0311 11.5875 5.24705 11.3791 5.24705 11.3791L4.71875 12.5971L6.10348 12.9423C6.25505 12.9803 6.40484 13.0194 6.55311 13.058L6.5533 13.0581C6.65695 13.0851 6.75987 13.1119 6.86213 13.1381L6.4218 14.9062L7.48465 15.1713L7.92072 13.422C8.21107 13.5008 8.49286 13.5735 8.76871 13.6421L8.33412 15.3831L9.39825 15.6483L9.83853 13.8835C11.653 14.2269 13.0174 14.0885 13.5916 12.4473C14.0544 11.1259 13.5686 10.3637 12.614 9.86672C13.3093 9.70637 13.833 9.24908 13.9726 8.30444L13.9723 8.3042L13.9722 8.3043ZM11.5405 11.7191C11.2388 12.9314 9.34123 12.4302 8.47302 12.2009C8.39492 12.1803 8.32515 12.1619 8.26562 12.1471L8.84995 9.80469C8.9225 9.8228 9.01116 9.8427 9.1116 9.86524C10.0097 10.0668 11.8497 10.4797 11.5406 11.7191H11.5405ZM9.29165 8.77948C10.0155 8.97265 11.5945 9.39407 11.8695 8.29224H11.8696C12.1504 7.16534 10.6159 6.82559 9.86639 6.65965C9.78207 6.64098 9.7077 6.62452 9.64695 6.60938L9.11719 8.7338C9.16721 8.74626 9.2259 8.76193 9.29165 8.77948Z" fill="white"/>
</svg>
