<svg width="50" height="51" viewBox="0 0 50 51" fill="none" xmlns="http://www.w3.org/2000/svg">
<rect y="0.96875" width="50" height="49.9018" rx="24.9509" fill="#EF4444"/>
<path fill-rule="evenodd" clip-rule="evenodd" d="M24.9974 17.5859C29.5998 17.5859 33.3307 21.3169 33.3307 25.9193C33.3307 30.5216 29.5998 34.2526 24.9974 34.2526C20.395 34.2526 16.6641 30.5216 16.6641 25.9193C16.6641 21.3169 20.395 17.5859 24.9974 17.5859ZM24.9974 19.2526C21.3155 19.2526 18.3307 22.2374 18.3307 25.9193C18.3307 29.6012 21.3155 32.5859 24.9974 32.5859C28.6793 32.5859 31.6641 29.6012 31.6641 25.9193C31.6641 22.2374 28.6793 19.2526 24.9974 19.2526ZM24.9974 29.2526C25.4576 29.2526 25.8307 29.6257 25.8307 30.0859C25.8307 30.5462 25.4576 30.9193 24.9974 30.9193C24.5372 30.9193 24.1641 30.5462 24.1641 30.0859C24.1641 29.6257 24.5372 29.2526 24.9974 29.2526ZM24.9974 20.9193C25.4576 20.9193 25.8307 21.2924 25.8307 21.7526V26.7526C25.8307 27.2128 25.4576 27.5859 24.9974 27.5859C24.5372 27.5859 24.1641 27.2128 24.1641 26.7526V21.7526C24.1641 21.2924 24.5372 20.9193 24.9974 20.9193Z" fill="white"/>
</svg>
