<svg width="32" height="32" viewBox="0 0 32 32" fill="none" xmlns="http://www.w3.org/2000/svg">
<path fill-rule="evenodd" clip-rule="evenodd" d="M24.8203 5.61555L24.9459 5.72647L28.9459 9.72657C28.9819 9.76258 29.0159 9.80065 29.0476 9.84058L29.1579 10.0023L29.2091 10.1L29.2574 10.216L29.2999 10.358L29.3275 10.5139L29.3357 10.6254L29.3341 10.7481L29.316 10.9025L29.2701 11.0856L29.2115 11.2337L29.1418 11.3637L29.0527 11.4918L28.9459 11.6122L24.9459 15.6123C24.4252 16.1331 23.581 16.1331 23.0603 15.6123C22.5797 15.1317 22.5427 14.3754 22.9494 13.8523L23.0603 13.7267L24.7831 12.0029L12.0031 12.0028C11.3193 12.0028 10.7558 11.4881 10.6787 10.8249L10.6698 10.6694C10.6698 9.93299 11.2667 9.33604 12.0031 9.33604L24.7831 9.33621L23.0603 7.61214C22.5797 7.13148 22.5427 6.37515 22.9494 5.85208L23.0603 5.72647C23.5009 5.28587 24.1731 5.21808 24.685 5.52312L24.8203 5.61555ZM7.06009 26.279L3.06009 22.2789L2.93132 22.1297L2.83607 21.9818L2.76437 21.8309L2.71719 21.6906L2.68996 21.5691L2.67188 21.4148L2.67188 21.2572L2.68993 21.1032L2.73606 20.9191L2.76208 20.8471L2.81445 20.7309L2.86432 20.6418L2.93773 20.5338L3.00762 20.4488L3.06009 20.3932L7.06009 16.3931L7.1857 16.2822C7.66517 15.9094 8.34063 15.9094 8.8201 16.2822L8.94571 16.3931L9.05662 16.5188C9.42943 16.9982 9.42943 17.6737 9.05662 18.1532L8.94571 18.2788L7.2229 20.0029L20.0029 20.0027C20.6867 20.0027 21.2502 20.5174 21.3273 21.1805L21.3362 21.336L21.3273 21.4916C21.2562 22.1037 20.7705 22.5894 20.1584 22.6605L20.0029 22.6694L7.2229 22.6695L8.94571 24.3933L9.05662 24.519C9.46333 25.042 9.42635 25.7984 8.94571 26.279C8.46506 26.7597 7.70875 26.7966 7.1857 26.3899L7.06009 26.279Z" fill="#E4E4E4"/>
</svg>
