<svg width="26" height="35" viewBox="0 0 26 35" fill="none" xmlns="http://www.w3.org/2000/svg">
<path fill-rule="evenodd" clip-rule="evenodd" d="M4.91209 22.3956C4.76733 22.7643 4.40044 23.3174 3.57339 23.1074C3.60257 23.1509 1.45016 22.5637 1.45016 22.5637L0 25.994L3.80137 26.9662C4.22771 27.0758 4.64892 27.1885 5.06571 27.3L5.06579 27.3C5.34035 27.3734 5.61299 27.4464 5.88391 27.5176L4.67496 32.497L7.59282 33.2438L8.79007 28.3173C9.56386 28.5324 10.3399 28.739 11.118 28.9369L9.92489 33.8404L12.8461 34.5872L14.055 29.6172C19.0363 30.5842 22.7819 30.1942 24.3586 25.5723C25.629 21.8511 24.2954 19.7044 21.6745 18.3046C23.5832 17.8531 25.0208 16.5652 25.4044 13.9048C25.9343 10.2705 23.237 8.3168 19.5487 7.01346L20.7451 2.09034L17.8239 1.34351L16.6591 6.13686C15.8912 5.94055 15.1024 5.75532 14.3187 5.5718L15.4918 0.746824L12.5723 0L11.375 4.92137C10.7394 4.77286 10.1154 4.62599 9.50968 4.47155L9.51299 4.45616L5.4844 3.42426L4.70725 6.62495C4.70725 6.62495 6.87467 7.13451 6.82889 7.16608C8.01203 7.46908 8.22584 8.27219 8.19011 8.90899L4.91209 22.3956ZM18.7308 23.5091C17.9026 26.9231 12.6933 25.5117 10.3097 24.8659L10.3095 24.8658C10.0951 24.8077 9.90356 24.7558 9.74012 24.7142L11.3443 18.1174C11.5432 18.1684 11.7864 18.2243 12.0618 18.2877L12.0619 18.2877C14.5271 18.8552 19.5794 20.0181 18.7308 23.5091ZM12.5561 15.2266C14.5433 15.7707 18.8782 16.9574 19.6332 13.8543C20.4043 10.6803 16.1913 9.72357 14.1337 9.25629C13.9022 9.20373 13.6981 9.15736 13.5313 9.11472L12.077 15.0979C12.2143 15.133 12.3755 15.1772 12.5561 15.2266Z" fill="white"/>
</svg>
