<svg width="30" height="41" viewBox="0 0 30 41" fill="none" xmlns="http://www.w3.org/2000/svg">
<path fill-rule="evenodd" clip-rule="evenodd" d="M5.78553 26.548C5.61503 26.9851 5.18289 27.6407 4.20878 27.3917C4.24315 27.4434 1.70801 26.7473 1.70801 26.7473L0 30.8135L4.4773 31.966C4.97949 32.0959 5.47563 32.2295 5.96657 32.3617L5.96754 32.3619C6.29058 32.4489 6.61137 32.5353 6.93014 32.6196L5.50623 38.5222L8.94292 39.4075L10.3531 33.5676C11.2644 33.8226 12.1784 34.0675 13.0949 34.3021L11.6897 40.1147L15.1303 41L16.5542 35.1085C22.4212 36.2548 26.8328 35.7925 28.6898 30.3137C30.1862 25.9025 28.6154 23.3578 25.5285 21.6985C27.7766 21.1633 29.4698 19.6365 29.9216 16.4829C30.5458 12.1748 27.3688 9.85882 23.0247 8.31383L24.4339 2.47791L20.9932 1.59261L19.6213 7.27469C18.7169 7.04198 17.7878 6.82242 16.8648 6.60487L18.2465 0.885293L14.8078 0L13.3977 5.83384C12.649 5.6578 11.9141 5.4837 11.2006 5.30062L11.2045 5.28238L6.4596 4.05916L5.54427 7.85329C5.54427 7.85329 8.09707 8.45732 8.04316 8.49474C9.43668 8.85393 9.6885 9.80594 9.64642 10.5608L5.78553 26.548ZM22.0605 27.8643C21.085 31.9113 14.9495 30.2382 12.142 29.4726L12.142 29.4726C11.8894 29.4037 11.6637 29.3422 11.4712 29.2928L13.3605 21.4729C13.5949 21.5333 13.8812 21.5996 14.2055 21.6748L14.2057 21.6748C17.1093 22.3475 23.06 23.7261 22.0605 27.8643ZM14.7891 18.0459C17.1297 18.6908 22.2353 20.0976 23.1247 16.4192C24.0329 12.6567 19.0707 11.5225 16.6473 10.9686C16.3746 10.9063 16.1342 10.8513 15.9378 10.8008L14.2248 17.8933C14.3866 17.935 14.5765 17.9873 14.7891 18.0459Z" fill="white"/>
</svg>
