<svg width="35" height="36" viewBox="0 0 35 36" fill="none" xmlns="http://www.w3.org/2000/svg">
<g id="ic20-close" opacity="0.7">
<path id="Icon" fill-rule="evenodd" clip-rule="evenodd" d="M20.0252 18.4691L29.4768 9.01739C30.1751 8.31918 30.1751 7.19062 29.4768 6.49241C28.7786 5.7942 27.6501 5.7942 26.9519 6.49241L17.5002 15.9441L8.04861 6.49241C7.35041 5.7942 6.22186 5.7942 5.52365 6.49241C4.82545 7.19062 4.82545 8.31918 5.52365 9.01739L14.9753 18.4691L5.52365 27.9208C4.82545 28.619 4.82545 29.7476 5.52365 30.4458C5.87186 30.794 6.329 30.969 6.78613 30.969C7.24327 30.969 7.7004 30.794 8.04861 30.4458L17.5002 20.9941L26.9519 30.4458C27.3001 30.794 27.7572 30.969 28.2144 30.969C28.6715 30.969 29.1286 30.794 29.4768 30.4458C30.1751 29.7476 30.1751 28.619 29.4768 27.9208L20.0252 18.4691Z" fill="#1E293B"/>
</g>
</svg>
