<svg width="32" height="32" viewBox="0 0 32 32" fill="none" xmlns="http://www.w3.org/2000/svg">
<path fill-rule="evenodd" clip-rule="evenodd" d="M17.3307 2.66406C19.461 2.66406 21.2023 4.32929 21.3239 6.42903L21.3307 6.66406V10.6641H25.3307C27.461 10.6641 29.2023 12.3293 29.3239 14.429L29.3307 14.6641V25.3307C29.3307 27.461 27.6655 29.2023 25.5658 29.3239L25.3307 29.3307H14.6641C12.5338 29.3307 10.7925 27.6655 10.6709 25.5658L10.6641 25.3307V21.3307H6.66406C4.53382 21.3307 2.79251 19.6655 2.67085 17.5658L2.66406 17.3307V6.66406C2.66406 4.53382 4.32929 2.79251 6.42903 2.67085L6.66406 2.66406H17.3307ZM25.3307 13.3307H21.3307V17.3307C21.3307 19.461 19.6655 21.2023 17.5658 21.3239L17.3307 21.3307H13.3307V25.3307C13.3307 26.0145 13.8454 26.5781 14.5086 26.6551L14.6641 26.6641H25.3307C26.0145 26.6641 26.5781 26.1493 26.6551 25.4862L26.6641 25.3307V14.6641C26.6641 13.9803 26.1493 13.4167 25.4862 13.3397L25.3307 13.3307Z" fill="white" fill-opacity="0.5"/>
</svg>
