<svg width="86" height="86" viewBox="0 0 86 86" fill="none" xmlns="http://www.w3.org/2000/svg">
<g style="mix-blend-mode:overlay">
<path fill-rule="evenodd" clip-rule="evenodd" d="M16.4735 2.84646C14.7868 3.79301 13.1686 4.8566 11.6308 6.02942C8.17516 8.66151 5.16864 11.8076 2.93601 15.1279L0.557373 13.5295C2.96306 9.95185 6.19136 6.5701 9.89366 3.75033C11.5385 2.49595 13.2693 1.35844 15.0733 0.346191L16.4735 2.84646ZM10.8888 35.5663C10.8146 35.5781 10.7395 35.584 10.6643 35.5841C10.1773 35.584 9.72375 35.3366 9.45997 34.9274C9.1962 34.5182 9.15834 34.003 9.35946 33.5596L18.099 14.2942C18.298 13.8556 18.7041 13.5463 19.18 13.471L40.0793 10.1608C40.5999 10.0784 41.1238 10.2885 41.4433 10.7077C41.7628 11.1269 41.8263 11.6876 41.6086 12.1675L32.869 31.4328C32.67 31.8714 32.2639 32.1807 31.7881 32.256L10.8888 35.5663ZM26.3958 30.209L21.1312 27.9803L16.0545 31.847L26.3958 30.209ZM22.0201 23.7009L21.0088 16.0826L34.9136 13.8802L22.0201 23.7009ZM14.3175 29.5677L19.3942 25.701L18.642 20.0351L14.3175 29.5677ZM30.836 28.9769L23.757 25.9802L36.6505 16.1593L30.836 28.9769Z" fill="white"/>
<path fill-rule="evenodd" clip-rule="evenodd" d="M76.9163 28.1228C81.7663 33.895 84.9092 40.5384 85.7658 46.8287C86.6553 53.3589 84.9932 58.762 81.0858 62.0433L74.5018 67.5721C72.0529 69.6284 68.9352 70.6725 65.4032 70.6725C63.1256 70.6468 60.8656 70.2696 58.7032 69.5543C58.1567 69.3794 57.6111 69.1863 57.0665 68.975L54.0068 76.4521C52.0746 81.1738 47.4354 84.406 40.9439 85.5535C39.2033 85.8555 37.4396 86.0048 35.673 85.9998C30.7733 85.9999 25.5169 84.924 20.424 82.8411C13.4448 79.9868 7.5715 75.5676 3.88621 70.3978C0.0604782 65.0309 -0.982481 59.4748 0.949734 54.7531L4.20544 46.7967C4.58912 45.8615 5.08446 44.9762 5.68067 44.1599L2.68489 40.2293C-0.407617 36.1713 -0.844184 30.5353 1.45599 24.3591C3.67142 18.4097 8.19491 12.617 14.1933 8.04846C20.1913 3.4797 26.9782 0.657245 33.304 0.100813C39.8712 -0.476572 45.1906 1.43987 48.2831 5.49786L53.4943 12.3357C54.1543 13.2022 54.6996 14.1504 55.1168 15.1565C62.5373 15.848 70.6443 20.6583 76.9163 28.1228ZM49.3239 53.1642L44.936 56.8488V56.849C46.8708 59.0136 49.0388 60.9581 51.4005 62.647L55.7249 59.0156C53.3978 57.2877 51.2531 55.3271 49.3239 53.1642ZM43.0934 54.654C42.4956 53.8906 41.9278 53.1103 41.3897 52.3132C41.3273 52.2046 41.2614 52.0981 41.1921 51.9938L41.1796 52.0021C40.1202 50.4072 39.1812 48.7354 38.3707 47.0008C39.5999 46.2423 40.8051 45.4142 41.9863 44.5165C42.2942 44.2819 42.5979 44.0439 42.8974 43.8025C44.1807 46.3393 45.7162 48.7406 47.4807 50.97L43.0934 54.654ZM35.3403 57.8302C36.8054 58.4291 38.4788 57.7274 39.0781 56.2628C39.3964 55.4849 39.3568 54.6064 38.9697 53.8603C37.7995 52.132 36.7639 50.3164 35.872 48.4294C34.1367 49.3488 32.3346 50.1361 30.4809 50.7848L28.7078 55.1177L35.34 57.83L35.3403 57.8302ZM35.8127 62.0259C36.2611 63.0947 36.0213 64.3283 35.2052 65.1514C34.389 65.9745 33.1573 66.2251 32.0843 65.7863L25.4521 63.0739L27.6226 57.7697L34.2547 60.482C34.9595 60.768 35.5205 61.324 35.8127 62.0261V62.0259ZM15.8795 45.7218C15.7246 45.7248 15.57 45.7271 15.4166 45.7271C13.5623 45.7418 11.7149 45.4986 9.92756 45.0045L10.176 45.3305C12.0597 47.8023 15.0709 49.2715 18.849 49.6182L15.8795 45.7218ZM22.5262 49.6174L22.4558 49.6227L19.2658 45.4374C21.3284 45.1286 23.3566 44.6234 25.3229 43.9285L28.701 48.361C26.7272 48.9983 24.6894 49.417 22.6242 49.6096V49.6098C22.5913 49.6126 22.5587 49.615 22.5262 49.6174ZM39.0942 43.0859L35.6214 38.5288C33.2648 40.2162 30.7421 41.659 28.0926 42.8347L31.5153 47.3257C34.19 46.1956 36.7317 44.7737 39.0942 43.0859ZM41.3741 41.3495L37.9011 36.7924C40.154 34.9688 42.215 32.9202 44.0521 30.6786L47.4748 35.1696C45.6749 37.4477 43.629 39.5201 41.3741 41.3493V41.3495ZM45.8421 28.2994L49.2202 32.7318C50.3587 30.9986 51.3034 29.1455 52.0373 27.206C52.0489 27.1749 52.0599 27.144 52.071 27.113L52.0947 27.047L48.9049 22.8617C48.0596 24.7677 47.0341 26.5885 45.8421 28.2994ZM53.0477 23.5696L50.0786 19.6739C50.6665 17.753 50.9656 15.7554 50.9662 13.7466L51.2145 14.0721C53.0982 16.5436 53.7161 19.8361 53.0477 23.5696ZM15.93 10.3279C10.3573 14.5723 6.1708 19.9106 4.14185 25.3589V25.3591C2.19727 30.5806 2.48945 35.245 4.96464 38.4928L4.96625 38.495C7.44198 41.7413 11.8614 43.2604 17.4128 42.7722C23.2057 42.2625 29.4652 39.6442 35.0379 35.3997C40.6105 31.155 44.797 25.8168 46.8259 20.3684C48.7705 15.1467 48.4783 10.4823 46.0032 7.23449C43.8314 4.38518 40.1619 2.86578 35.5453 2.86578C34.8996 2.86554 34.2362 2.89539 33.555 2.95532C27.7619 3.46501 21.5026 6.0833 15.93 10.3279ZM7.8961 47.0673C10.6276 50.6516 15.0961 52.5651 20.6277 52.5651C21.3585 52.5651 22.1077 52.5315 22.8752 52.4643C24.2527 52.3401 25.6199 52.1197 26.9667 51.8047L22.799 61.9892L20.1463 60.9041L19.0609 63.5562L21.7138 64.6412L20.6285 67.2933L23.2814 68.3782L24.3667 65.7261L27.0194 66.811L25.9342 69.4632L28.5871 70.5483L29.6723 67.8959L30.9988 68.4386C33.1448 69.3162 35.6083 68.8151 37.2405 67.1689C38.8728 65.5227 39.3524 63.0556 38.4558 60.9181C38.4082 60.8058 38.3571 60.6951 38.3026 60.586C39.8156 60.0635 41.0401 58.9307 41.6783 57.4631C41.6981 57.4866 41.7175 57.5103 41.7369 57.534L41.737 57.5341C41.758 57.5598 41.779 57.5855 41.8005 57.611C45.5041 62.0189 49.8801 65.5327 54.4359 67.8075C52.786 71.3728 48.9946 73.8399 43.7006 74.7757C37.974 75.7879 31.2491 74.8849 24.7649 72.233C18.2807 69.581 12.851 65.5131 9.47595 60.7787C6.24138 56.2411 5.31164 51.6611 6.85816 47.8819C7.04484 47.4294 7.26582 46.9917 7.51919 46.5728L7.8961 47.0673ZM20.192 79.6238L22.3617 74.3215H22.3619C19.7126 73.1455 17.1902 71.7025 14.8337 70.0149L12.6953 75.2404C15.0252 76.9729 17.5393 78.443 20.192 79.6238ZM25.0157 75.4041C27.7294 76.4223 30.5399 77.1612 33.4036 77.6094L31.2652 82.8352C28.3887 82.4385 25.5648 81.7254 22.8449 80.7089L25.0157 75.4041ZM3.75759 55.4592L3.60263 55.838C2.42586 58.714 2.68436 62.0537 4.30003 65.4854L6.15485 60.9523C5.08809 59.25 4.28018 57.3988 3.75759 55.4592ZM6.16655 68.6577L6.1665 68.6577C6.15233 68.6372 6.13814 68.6167 6.12368 68.5962L8.11663 63.7262C9.42801 65.3473 10.8914 66.8393 12.4869 68.1819L10.3767 73.3394C8.82683 71.9612 7.43305 70.4171 6.22042 68.7348C6.20209 68.7091 6.18432 68.6834 6.16655 68.6577ZM36.363 77.9456L34.252 83.104V83.1042C36.3238 83.2071 38.4005 83.0822 40.4449 82.7317C40.4673 82.7279 40.4894 82.7237 40.5115 82.7195L40.5442 82.7132C40.5664 82.709 40.5886 82.7047 40.611 82.7006L42.604 77.83C41.3841 77.9733 40.1569 78.0446 38.9287 78.0435C38.0833 78.0435 37.2269 78.0093 36.363 77.9456ZM44.0928 81.7598L45.9478 77.2267C47.9021 76.7599 49.7763 76.0055 51.5089 74.9881L51.3539 75.367C50.177 78.2428 47.6511 80.4439 44.0928 81.7598ZM58.1872 60.6901L53.9192 64.274C55.7052 65.3285 57.6016 66.1837 59.5743 66.8243C59.6059 66.8344 59.6373 66.8439 59.6687 66.8534L59.6689 66.8535L59.6691 66.8536C59.6801 66.8569 59.6911 66.8603 59.7022 66.8636C59.7134 66.8671 59.7247 66.8705 59.7359 66.8741L63.7661 63.4896C61.8214 62.7364 59.9533 61.7989 58.1872 60.6901ZM72.6581 65.3781C70.2782 67.3768 67.018 68.1504 63.2557 67.6602L67.0071 64.5101C68.6358 64.9198 70.3079 65.1326 71.9874 65.1437C72.3206 65.1437 72.6486 65.1311 72.9741 65.1127L72.6581 65.3781ZM66.1585 61.2954C71.4682 62.9887 76.1148 62.4753 79.2422 59.8493C82.3695 57.2231 83.6777 52.7362 82.9257 47.2152C82.1413 41.4546 79.2275 35.3287 74.7216 29.9658C69.3321 23.5515 62.2874 19.1474 55.9686 18.1516C56.4743 21.1818 56.0659 24.6014 54.7236 28.2057C52.9158 33.0599 49.5713 37.8092 45.1436 41.8749C46.5966 44.8803 48.423 47.6904 50.5795 50.2388C55.0856 55.6016 60.6182 59.5283 66.1585 61.2954Z" fill="white"/>
<path fill-rule="evenodd" clip-rule="evenodd" d="M58.8612 10.1504C59.8943 10.2209 60.921 10.366 61.9333 10.5845L61.3339 13.3865C60.4573 13.197 59.5682 13.0711 58.6734 13.0097L58.8612 10.1504ZM79.021 25.0061C79.4737 25.5449 79.9129 26.095 80.3382 26.6557L82.6222 24.9248C82.1681 24.3259 81.6991 23.7385 81.2156 23.163C76.652 17.7316 70.9926 13.6066 65.2796 11.548L64.3076 14.2435C69.5523 16.1336 74.7775 19.9557 79.021 25.0061ZM66.3579 39.692C67.3209 37.3915 69.6604 35.9767 72.1455 36.1918L72.1454 36.192C74.4552 36.3928 76.4166 37.9649 77.115 40.1751C77.8134 42.3854 77.1112 44.7986 75.3359 46.2894C74.3076 47.158 73.0046 47.6339 71.6585 47.6326C71.4904 47.6326 71.3216 47.6253 71.152 47.6106C68.4392 47.3739 66.2667 45.263 65.9528 42.5588L62.9852 41.6922L62.3367 42.2366C63.58 44.8384 62.6945 47.9585 60.2696 49.5197C57.8447 51.0808 54.6369 50.596 52.7819 48.388C50.927 46.1801 51.0036 42.9377 52.9606 40.8196C54.9177 38.7016 58.1448 38.3686 60.4933 40.0424L61.1415 39.4982L60.8 36.4261C58.035 35.6046 56.3108 32.8576 56.7738 30.0112C57.2367 27.1649 59.7427 25.1055 62.6256 25.2022C65.5085 25.2988 67.8708 27.5215 68.1419 30.3924C68.4131 33.2634 66.5086 35.8888 63.6947 36.5231L63.9694 38.9946L66.3579 39.692ZM60.195 29.1384C59.3396 30.2049 59.3569 31.7269 60.2363 32.7737H60.2364C60.724 33.3573 61.4249 33.7217 62.1828 33.7856C63.5451 33.904 64.8013 33.044 65.1833 31.7314C65.5653 30.4188 64.9666 29.0193 63.7534 28.3886C62.5403 27.758 61.0504 28.0719 60.195 29.1384ZM60.0191 44.9577C59.8847 46.5014 58.547 47.6585 56.9997 47.5697C55.4523 47.4809 54.2559 46.1785 54.2989 44.6296C54.3419 43.0807 55.6089 41.8466 57.1588 41.8439C57.2428 41.8439 57.3272 41.8475 57.4121 41.8548C58.9891 41.992 60.1563 43.3812 60.0191 44.9577ZM73.4921 44.0952C74.0759 43.6079 74.4404 42.9073 74.5043 42.1496C74.5702 41.3925 74.3325 40.6402 73.8435 40.0583C73.3546 39.4764 72.6544 39.1125 71.8971 39.0467C71.8123 39.0393 71.7278 39.0356 71.6438 39.0356C70.3779 39.0378 69.2633 39.8699 68.9018 41.0828C68.5404 42.2957 69.0176 43.602 70.0758 44.2964C71.1341 44.9909 72.5228 44.9092 73.4921 44.0952ZM61.8068 74.5134L61.6147 74.5163L61.6524 77.3816L61.8584 77.3783C62.7767 77.3622 63.7035 77.3176 64.6127 77.2458L64.387 74.3893C63.536 74.4567 62.6681 74.4984 61.8068 74.5134ZM67.5764 76.91L67.1558 74.0756H67.1556C71.7989 73.387 76.0736 71.9132 79.5181 69.8136L81.0102 72.2603C77.241 74.5577 72.5955 76.1655 67.5764 76.91Z" fill="white"/>
</g>
</svg>
