<svg width="24" height="24" viewBox="0 0 24 24" fill="none" xmlns="http://www.w3.org/2000/svg">
<mask id="mask0_58_1563" style="mask-type:luminance" maskUnits="userSpaceOnUse" x="0" y="0" width="24" height="24">
<path fill-rule="evenodd" clip-rule="evenodd" d="M0 0H24V24H0V0Z" fill="white"/>
</mask>
<g mask="url(#mask0_58_1563)">
<path fill-rule="evenodd" clip-rule="evenodd" d="M22.4988 0.00160481C21.6746 0.00160481 20.9991 0.675601 20.9991 1.50056V4.08218C18.4635 1.20168 14.5949 -0.448234 10.3494 0.106821C5.19872 0.805216 0.879715 4.94069 0.118596 10.3083C-0.0075061 11.2034 0.713079 12.0009 1.61681 12.0009C2.35842 12.0009 2.98442 11.458 3.08951 10.723C3.71102 6.36188 7.46857 3.00257 11.9992 3.00257C14.6534 3.00257 17.0539 4.1569 18.6887 6.002H16.4984C15.6742 6.002 14.9987 6.676 14.9987 7.50096C14.9987 8.32592 15.6742 8.99992 16.4984 8.99992H22.4988C22.8891 8.99992 23.2344 8.852 23.5031 8.61107C23.8048 8.34117 24 7.93555 24 7.50096V1.50056C24 0.675601 23.3245 0.00160481 22.4988 0.00160481ZM22.3787 12.0009C21.6296 12.0009 21.0141 12.5559 20.909 13.2909C20.1884 18.2559 15.419 21.9141 10.0642 20.7903C8.19065 20.403 6.53181 19.392 5.2903 18.0013H7.50009C8.32877 18.0013 8.99981 17.3288 8.99981 16.4993C8.99981 15.6713 8.32877 15.0003 7.50009 15.0003H1.49972C0.671045 15.0003 0 15.6713 0 16.4993V22.4997C0 23.3292 0.671045 24.0002 1.49972 24.0002C2.32839 24.0002 2.99944 23.3292 2.99944 22.4997V19.9165C5.20173 22.4112 8.41884 24.0002 11.9992 24.0002C18.0281 24.0002 23.0542 19.5155 23.8784 13.7103C24.0135 12.8106 23.2944 12.0009 22.3787 12.0009Z" fill="#272727"/>
</g>
</svg>
