<svg width="24" height="24" viewBox="0 0 24 24" fill="none" xmlns="http://www.w3.org/2000/svg">
<mask id="mask0_58_1773" style="mask-type:luminance" maskUnits="userSpaceOnUse" x="0" y="0" width="24" height="24">
<path fill-rule="evenodd" clip-rule="evenodd" d="M0 0H24V24H0V0Z" fill="white"/>
</mask>
<g mask="url(#mask0_58_1773)">
<path fill-rule="evenodd" clip-rule="evenodd" d="M15 11.9997H13.5004V10.4991C13.5004 9.67112 12.8287 9 11.9992 9C11.1729 9 10.4996 9.67112 10.4996 10.4991V13.5002C10.4996 14.3282 11.1729 14.9993 11.9992 14.9993H15C15.8279 14.9993 16.4996 14.3282 16.4996 13.5002C16.4996 12.6708 15.8279 11.9997 15 11.9997ZM2.56027 5.55997L5.56103 2.56031C6.14632 1.97516 6.14632 1.02504 5.56103 0.438376C4.97422 -0.146776 4.02502 -0.146776 3.43973 0.438376L0.438969 3.43954C-0.146323 4.0247 -0.146323 4.97482 0.438969 5.55997C0.731615 5.85254 1.11676 5.99883 1.50038 5.99883C1.884 5.99883 2.26763 5.85254 2.56027 5.55997ZM23.561 3.43954L20.5603 0.438376C19.975 -0.146776 19.0258 -0.146776 18.4405 0.438376C17.8537 1.02504 17.8537 1.97516 18.4405 2.56031L21.4397 5.55997C21.7324 5.85254 22.116 5.99883 22.4996 5.99883C22.8848 5.99883 23.2684 5.85254 23.561 5.55997C24.1463 4.97482 24.1463 4.0247 23.561 3.43954ZM11.9992 21.0002C7.85823 21.0002 4.49962 17.6416 4.49962 13.5002C4.49962 9.35743 7.85823 5.99883 11.9992 5.99883C16.1418 5.99883 19.5004 9.35743 19.5004 13.5002C19.5004 17.6416 16.1418 21.0002 11.9992 21.0002ZM13.5004 3.11982V1.5001C13.5004 0.670627 12.8287 -0.000488281 11.9992 -0.000488281C11.1729 -0.000488281 10.4996 0.670627 10.4996 1.5001V3.11982C5.42002 3.85126 1.50038 8.2203 1.50038 13.5002C1.50038 19.2884 6.21001 23.9998 11.9992 23.9998C17.79 23.9998 22.4996 19.2884 22.4996 13.5002C22.4996 8.2203 18.58 3.85126 13.5004 3.11982Z" fill="#027184"/>
</g>
</svg>
