<svg width="53" height="20" viewBox="0 0 53 20" fill="none" xmlns="http://www.w3.org/2000/svg">
<path d="M28.6783 0H2.32167C1.03941 0 0 1.02352 0 2.28618V17.7138C0 18.9764 1.03941 19.9999 2.32167 19.9999H28.6783C29.9605 19.9999 31 18.9764 31 17.7138V2.28618C31 1.02352 29.9606 0 28.6783 0Z" fill="#41479B"/>
<path d="M30.9678 1.9083C30.7849 0.825637 29.8298 0 28.6783 0H28.0743L18.1724 6.38825V5.96214e-05H12.8276V6.38831L2.92575 5.96214e-05H2.32167C1.17025 5.96214e-05 0.215123 0.825637 0.0321504 1.90836L8.49527 7.36849H0V12.6316H8.49527L0.0321504 18.0916C0.215123 19.1743 1.17025 19.9999 2.32167 19.9999H2.92575L12.8276 13.6117V19.9999H18.1724V13.6117L28.0743 19.9999H28.6783C29.8298 19.9999 30.7849 19.1744 30.9678 18.0916L22.5047 12.6315H31V7.36837H22.5047L30.9678 1.9083Z" fill="#F5F5F5"/>
<path d="M17.1035 0H13.8965V8.42099H0V11.5789H13.8965V19.9999H17.1035V11.5789H31V8.42099H17.1035V0Z" fill="#FF4B55"/>
<path fill-rule="evenodd" clip-rule="evenodd" d="M30.4309 0.787625L20.1358 7.36834H18.1724L29.4804 0.140137C29.8475 0.27374 30.1745 0.49645 30.4309 0.787625ZM0.245148 1.26388L9.79521 7.36834H11.7586L0.936956 0.451062C0.64508 0.665109 0.408154 0.943478 0.245148 1.26388ZM12.7981 12.6315L1.50113 19.8525C1.1363 19.7163 0.812122 19.492 0.558478 19.2001L10.8347 12.6315H12.7981ZM19.0093 12.6315H20.9727L30.695 18.8458C30.5128 19.1597 30.2579 19.4268 29.9511 19.6254L19.0093 12.6315Z" fill="#FF4B55"/>
<path fill-rule="evenodd" clip-rule="evenodd" d="M50.2426 8.00012C51.1335 8.00012 51.5797 9.07726 50.9497 9.70722L47.7071 12.9499C47.3166 13.3404 46.6834 13.3404 46.2929 12.9499L43.0503 9.70722C42.4203 9.07726 42.8665 8.00012 43.7574 8.00012L50.2426 8.00012Z" fill="white"/>
</svg>
