<svg width="32" height="32" viewBox="0 0 32 32" fill="none" xmlns="http://www.w3.org/2000/svg">
<g clip-path="url(#clip0_360_171)">
<path d="M15.7741 2.88125C19.9888 2.88125 20.4879 2.9 22.1454 2.975C23.6858 3.04375 24.5177 3.30625 25.0722 3.525C25.8055 3.8125 26.3354 4.1625 26.8838 4.71875C27.4383 5.28125 27.7772 5.8125 28.0607 6.55625C28.2763 7.11875 28.5351 7.96875 28.6029 9.525C28.6769 11.2125 28.6953 11.7188 28.6953 15.9875C28.6953 20.2625 28.6769 20.7688 28.6029 22.45C28.5351 24.0125 28.2763 24.8563 28.0607 25.4188C27.7772 26.1625 27.4322 26.7 26.8838 27.2563C26.3292 27.8188 25.8055 28.1625 25.0722 28.45C24.5177 28.6688 23.6797 28.9313 22.1454 29C20.4817 29.075 19.9826 29.0938 15.7741 29.0938C11.5595 29.0938 11.0604 29.075 9.40285 29C7.86241 28.9313 7.03057 28.6688 6.47602 28.45C5.74277 28.1625 5.21285 27.8125 4.66446 27.2563C4.1099 26.6938 3.771 26.1625 3.48756 25.4188C3.2719 24.8563 3.0131 24.0063 2.94532 22.45C2.87138 20.7625 2.8529 20.2563 2.8529 15.9875C2.8529 11.7125 2.87138 11.2063 2.94532 9.525C3.0131 7.9625 3.2719 7.11875 3.48756 6.55625C3.771 5.8125 4.11606 5.275 4.66446 4.71875C5.21902 4.15625 5.74277 3.8125 6.47602 3.525C7.03057 3.30625 7.86857 3.04375 9.40285 2.975C11.0604 2.9 11.5595 2.88125 15.7741 2.88125ZM15.7741 0C11.4917 0 10.9556 0.01875 9.27346 0.09375C7.59746 0.16875 6.44521 0.44375 5.447 0.8375C4.40566 1.25 3.52453 1.79375 2.64956 2.6875C1.76843 3.575 1.23235 4.46875 0.825677 5.51875C0.437485 6.5375 0.166368 7.7 0.0924265 9.4C0.0184853 11.1125 0 11.6562 0 16C0 20.3438 0.0184853 20.8875 0.0924265 22.5938C0.166368 24.2938 0.437485 25.4625 0.825677 26.475C1.23235 27.5313 1.76843 28.425 2.64956 29.3125C3.52453 30.2 4.40566 30.75 5.44084 31.1562C6.44521 31.55 7.59129 31.825 9.26729 31.9C10.9495 31.975 11.4855 31.9937 15.768 31.9937C20.0504 31.9937 20.5865 31.975 22.2686 31.9C23.9446 31.825 25.0969 31.55 26.0951 31.1562C27.1303 30.75 28.0114 30.2 28.8864 29.3125C29.7613 28.425 30.3036 27.5313 30.7041 26.4813C31.0923 25.4625 31.3634 24.3 31.4373 22.6C31.5113 20.8938 31.5298 20.35 31.5298 16.0063C31.5298 11.6625 31.5113 11.1188 31.4373 9.4125C31.3634 7.7125 31.0923 6.54375 30.7041 5.53125C30.3159 4.46875 29.7798 3.575 28.8987 2.6875C28.0237 1.8 27.1426 1.25 26.1074 0.84375C25.103 0.45 23.9569 0.175 22.2809 0.1C20.5926 0.01875 20.0565 0 15.7741 0Z" fill="white"/>
<path d="M15.7746 7.78125C11.3012 7.78125 7.67188 11.4625 7.67188 16C7.67188 20.5375 11.3012 24.2188 15.7746 24.2188C20.248 24.2188 23.8773 20.5375 23.8773 16C23.8773 11.4625 20.248 7.78125 15.7746 7.78125ZM15.7746 21.3312C12.8724 21.3312 10.5186 18.9438 10.5186 16C10.5186 13.0563 12.8724 10.6687 15.7746 10.6687C18.6768 10.6687 21.0306 13.0563 21.0306 16C21.0306 18.9438 18.6768 21.3312 15.7746 21.3312Z" fill="white"/>
<path d="M26.088 7.45781C26.088 8.52032 25.2377 9.37657 24.1963 9.37657C23.1488 9.37657 22.3047 8.51407 22.3047 7.45781C22.3047 6.39531 23.155 5.53906 24.1963 5.53906C25.2377 5.53906 26.088 6.40156 26.088 7.45781Z" fill="white"/>
</g>
<defs>
<clipPath id="clip0_360_171">
<rect width="31.5482" height="32" fill="white"/>
</clipPath>
</defs>
</svg>
