<svg width="32" height="32" viewBox="0 0 32 32" fill="none" xmlns="http://www.w3.org/2000/svg">
<path d="M15.7779 17.1348L27.97 7.25144C27.5018 6.87489 26.9083 6.66687 26.294 6.66406H5.26183C4.64753 6.66687 4.05399 6.87489 3.58583 7.25144L15.7779 17.1348Z" fill="white"/>
<path d="M17.421 19.0799C16.9426 19.4263 16.3579 19.6155 15.7556 19.6187C15.1943 19.6198 14.6479 19.4477 14.1992 19.1284L2.63281 9.75526V22.8418C2.63281 23.5019 2.9098 24.135 3.40283 24.6017C3.89587 25.0685 4.56457 25.3307 5.26183 25.3307H26.294C26.9912 25.3307 27.6599 25.0685 28.153 24.6017C28.646 24.135 28.923 23.5019 28.923 22.8418V9.75526L17.421 19.0799Z" fill="white"/>
</svg>
