<svg width="17" height="13" viewBox="0 0 17 13" fill="none" xmlns="http://www.w3.org/2000/svg">
<path fill-rule="evenodd" clip-rule="evenodd" d="M7.72659 7.98831C7.90208 8.12131 8.1101 8.18831 8.31812 8.18831C8.52614 8.18831 8.73318 8.12131 8.90866 7.98831L12.8522 4.98831C13.2889 4.65731 13.3767 4.03031 13.0494 3.58831C12.723 3.14631 12.1039 3.05531 11.6701 3.38831L8.31812 5.93831L4.96513 3.38831C4.53135 3.05631 3.91221 3.14731 3.58589 3.58831C3.25857 4.03031 3.3473 4.65731 3.78306 4.98831L7.72659 7.98831ZM2.39954 10.1875H14.2301V2.1875H2.39954V10.1875ZM14.232 0.1875H2.40145C1.31205 0.1875 0.429688 1.0835 0.429688 2.1875V10.1875C0.429688 11.2925 1.31205 12.1875 2.40145 12.1875H14.232C15.3205 12.1875 16.2038 11.2925 16.2038 10.1875V2.1875C16.2038 1.0835 15.3205 0.1875 14.232 0.1875Z" fill="white"/>
</svg>
