<svg width="17" height="13" viewBox="0 0 17 13" fill="none" xmlns="http://www.w3.org/2000/svg">
<mask id="mask0_58_1648" style="mask-type:luminance" maskUnits="userSpaceOnUse" x="0" y="0" width="17" height="13">
<path fill-rule="evenodd" clip-rule="evenodd" d="M0.213257 0.189941H16.2128V12.1899H0.213257V0.189941Z" fill="white"/>
</mask>
<g mask="url(#mask0_58_1648)">
<path fill-rule="evenodd" clip-rule="evenodd" d="M7.61326 7.98994C7.79126 8.12294 8.00226 8.18994 8.21326 8.18994C8.42426 8.18994 8.63426 8.12294 8.81226 7.98994L12.8123 4.98994C13.2553 4.65894 13.3443 4.03194 13.0123 3.58994C12.6813 3.14794 12.0533 3.05694 11.6133 3.38994L8.21326 5.93994L4.81226 3.38994C4.37226 3.05794 3.74426 3.14894 3.41326 3.58994C3.08126 4.03194 3.17126 4.65894 3.61326 4.98994L7.61326 7.98994ZM2.21326 10.1899H14.2133V2.18994H2.21326V10.1899ZM14.2133 0.189941H2.21326C1.10826 0.189941 0.213257 1.08594 0.213257 2.18994V10.1899C0.213257 11.2949 1.10826 12.1899 2.21326 12.1899H14.2133C15.3173 12.1899 16.2133 11.2949 16.2133 10.1899V2.18994C16.2133 1.08594 15.3173 0.189941 14.2133 0.189941Z" fill="white"/>
</g>
</svg>
