<svg width="24" height="21" viewBox="0 0 24 21" fill="none" xmlns="http://www.w3.org/2000/svg">
<mask id="mask0_58_1759" style="mask-type:luminance" maskUnits="userSpaceOnUse" x="0" y="0" width="24" height="21">
<path fill-rule="evenodd" clip-rule="evenodd" d="M0 0H24V21H0V0Z" fill="white"/>
</mask>
<g mask="url(#mask0_58_1759)">
<path fill-rule="evenodd" clip-rule="evenodd" d="M17.2504 18.0001C16.9954 18.0001 16.7404 17.9686 16.5004 17.9251C15.3154 17.6851 14.3404 16.8901 13.8603 15.8401C13.6203 15.3601 13.5003 14.8201 13.5003 14.2501C13.5003 13.9951 13.5303 13.7401 13.5753 13.5001C13.6953 12.9451 13.9203 12.4351 14.2504 12.0001C14.4454 11.7451 14.6704 11.5051 14.9254 11.3101C15.5554 10.8001 16.3654 10.5001 17.2504 10.5001C17.3704 10.5001 17.4754 10.5001 17.5939 10.5151C19.5005 10.6801 21.0005 12.3001 21.0005 14.2501C21.0005 16.3201 19.3205 18.0001 17.2504 18.0001ZM13.0203 9.00006H7.50019V7.50005H15.0004V7.89006C14.2654 8.14506 13.6053 8.52006 13.0203 9.00006ZM6.00015 18.0001V16.5001H10.8903C11.0703 17.0386 11.3253 17.5336 11.6403 18.0001H6.00015ZM4.50011 13.5001V12.0001H10.8903C10.7103 12.4801 10.6053 12.9736 10.5453 13.5001H4.50011ZM3.00008 4.50003H10.5003V3.00002H3.00008V4.50003ZM18.0005 7.54505V7.50005C18.0005 5.84854 16.6504 4.50003 15.0004 4.50003H13.5003V3.00002C13.5003 1.34851 12.1503 0 10.5003 0H3.00008C1.35003 0 0 1.34851 0 3.00002V4.50003C0 6.15004 1.35003 7.50005 3.00008 7.50005H4.50011V9.00006C2.85007 9.00006 1.50004 10.3486 1.50004 12.0001V13.5001C1.50004 14.6101 2.11505 15.6001 3.03008 16.1101C3.01508 16.2301 3.00008 16.3651 3.00008 16.5001V18.0001C3.00008 19.6501 4.35011 21.0002 6.00015 21.0002H13.5003C14.0404 21.0002 14.5504 20.8651 14.9854 20.6101C15.6904 20.8651 16.4554 21.0002 17.2504 21.0002C20.969 21.0002 24.0006 17.9686 24.0006 14.2501C24.0006 10.7836 21.3755 7.91856 18.0005 7.54505Z" fill="#027184"/>
</g>
</svg>
