<svg width="200" height="50" viewBox="0 0 200 50" fill="none" xmlns="http://www.w3.org/2000/svg">
<path d="M90.4991 19.4984L94.2991 16.6984H81.6991V33.2984H94.2991V30.4984H85.2991V26.2984H92.8991V23.4984H85.2991V19.4984H90.4991ZM74.7991 19.4984L78.5991 16.6984H64.1991V33.2984H71.6991C75.8991 33.2984 78.2991 31.3984 78.2991 28.0984C78.2991 24.8984 76.0991 23.1984 72.0991 23.1984H67.6991V19.4984H74.7991ZM71.5991 25.8984C73.8991 25.8984 74.8991 26.6984 74.8991 28.1984C74.8991 29.6984 73.7991 30.4984 71.5991 30.4984H67.7991V25.8984H71.5991ZM104.399 16.6984H97.5991V33.2984H101.199V28.5984H104.499C108.899 28.5984 111.599 26.2984 111.599 22.5984C111.599 18.8984 108.799 16.6984 104.399 16.6984ZM104.399 25.7984H101.199V19.3984H104.399C106.699 19.3984 107.999 20.4984 107.999 22.5984C107.899 24.6984 106.699 25.7984 104.399 25.7984ZM58.0991 29.6984C57.0991 30.1984 56.0991 30.4984 54.9991 30.4984C51.7991 30.4984 49.3991 28.1984 49.3991 24.9984C49.3991 21.7984 51.6991 19.4984 54.9991 19.4984C56.1991 19.4984 57.2991 19.8984 58.2991 20.4984L60.8991 18.5984L60.6991 18.3984C59.1991 17.0984 57.1991 16.3984 54.8991 16.3984C52.3991 16.3984 50.1991 17.1984 48.4991 18.7984C46.8991 20.3984 45.8991 22.5984 45.9991 24.8984C45.9991 27.1984 46.8991 29.3984 48.4991 31.0984C50.1991 32.6984 52.4991 33.5984 54.7991 33.4984C57.3991 33.4984 59.5991 32.5984 61.1991 30.9984L58.8991 29.2984L58.0991 29.6984ZM165.999 23.4984H158.299V16.6984H154.699V33.2984H158.299V26.4984H165.999V33.2984H169.599V16.6984H165.999V23.4984ZM141.699 16.6984L134.499 33.2984H138.099L139.499 29.9984H147.099L148.499 33.2984H152.299L145.299 16.6984H141.699ZM140.699 27.1984L143.499 20.4984L146.099 27.1984H140.699ZM182.599 24.6984L189.099 16.6984H184.999L179.599 23.7984H177.599V16.6984H173.999V33.2984H177.599V26.5984H179.899L185.399 33.2984H189.999L182.599 24.6984ZM126.999 23.1984H122.599V19.4984H131.999V16.6984H118.999V33.2984H126.499C130.699 33.2984 133.099 31.3984 133.099 28.0984C133.199 24.8984 130.999 23.1984 126.999 23.1984ZM126.399 30.5984H122.599V25.9984H126.399C128.699 25.9984 129.699 26.7984 129.699 28.2984C129.799 29.7984 128.599 30.5984 126.399 30.5984Z" fill="#21A038"/>
<path d="M34.4827 16.3828C35.1319 17.2334 35.6815 18.1576 36.1204 19.1367L23.6715 28.4369L18.4688 25.1317V21.1553L23.6715 24.4605L34.4827 16.3828Z" fill="#21A038"/>
<path d="M13.1573 24.8526C13.1573 24.6741 13.1616 24.4969 13.1702 24.3206L10.0172 24.1641C10.0064 24.3925 10 24.6231 10 24.8558C9.99866 26.6741 10.3516 28.4748 11.0385 30.1545C11.7254 31.8343 12.7328 33.3601 14.003 34.6444L16.2395 32.3789C15.2618 31.392 14.4862 30.2191 13.9572 28.9274C13.4283 27.6358 13.1564 26.251 13.1573 24.8526Z" fill="url(#paint0_linear_388_3431)"/>
<path d="M23.664 14.1976C23.84 14.1976 24.0149 14.2041 24.1887 14.2128L24.3465 11.0163C24.1205 11.0054 23.8929 11 23.664 11C21.8689 10.9978 20.0912 11.3549 18.4328 12.0509C16.7744 12.7469 15.2679 13.7681 14 15.0558L16.2365 17.3224C17.2103 16.3312 18.3678 15.5449 19.6425 15.0086C20.9172 14.4724 22.2838 14.1967 23.664 14.1976Z" fill="url(#paint1_linear_388_3431)"/>
<path d="M23.668 35.4986C23.492 35.4986 23.317 35.4986 23.1421 35.4845L22.9844 38.6799C23.2112 38.6915 23.4391 38.6973 23.668 38.6973C25.4623 38.6992 27.2391 38.3418 28.8967 37.6456C30.5542 36.9494 32.0597 35.9281 33.3266 34.6405L31.0944 32.375C30.1205 33.3656 28.9631 34.1515 27.6886 34.6876C26.4142 35.2236 25.0478 35.4993 23.668 35.4986Z" fill="url(#paint2_linear_388_3431)"/>
<path d="M29.5924 16.0575L32.2495 14.0725C29.8208 12.0794 26.7892 10.9945 23.6641 11V14.1987C25.7803 14.1961 27.8473 14.8442 29.5924 16.0575Z" fill="url(#paint3_linear_388_3431)"/>
<path d="M37.3293 24.8491C37.331 24.017 37.2591 23.1863 37.1146 22.3672L34.173 24.5642C34.173 24.6589 34.173 24.7534 34.173 24.8491C34.1738 26.3373 33.866 27.8091 33.2696 29.1689C32.6732 30.5288 31.8014 31.7465 30.7109 32.7431L32.8326 35.1196C34.2504 33.8225 35.3833 32.2379 36.1579 30.4687C36.9326 28.6994 37.3316 26.7848 37.3293 24.8491Z" fill="#21A038"/>
<path d="M23.6653 35.5009C22.1968 35.5014 20.7445 35.1893 19.4025 34.5849C18.0606 33.9805 16.8588 33.0972 15.8751 31.9922L13.5312 34.1413C14.811 35.5784 16.3744 36.7267 18.1202 37.512C19.8661 38.2972 21.7552 38.7018 23.6653 38.6995V35.5009Z" fill="url(#paint4_linear_388_3431)"/>
<path d="M16.6194 16.9546L14.4988 14.5781C13.0806 15.875 11.9473 17.4594 11.1723 19.2287C10.3973 20.998 9.99789 22.9127 10 24.8485H13.1573C13.1566 23.3604 13.4645 21.8887 14.0609 20.5288C14.6573 19.169 15.529 17.9512 16.6194 16.9546Z" fill="url(#paint5_linear_388_3431)"/>
<defs>
<linearGradient id="paint0_linear_388_3431" x1="14.6415" y1="34.2452" x2="11.1091" y2="24.1693" gradientUnits="userSpaceOnUse">
<stop offset="0.14" stop-color="#F1E813"/>
<stop offset="0.3" stop-color="#E6E418"/>
<stop offset="0.58" stop-color="#C9DA26"/>
<stop offset="0.89" stop-color="#A2CC39"/>
</linearGradient>
<linearGradient id="paint1_linear_388_3431" x1="14.9015" y1="15.6213" x2="23.8161" y2="12.2692" gradientUnits="userSpaceOnUse">
<stop offset="0.06" stop-color="#0FA7DF"/>
<stop offset="0.54" stop-color="#0098F8"/>
<stop offset="0.92" stop-color="#0290EA"/>
</linearGradient>
<linearGradient id="paint2_linear_388_3431" x1="22.7762" y1="36.7668" x2="32.8361" y2="34.5243" gradientUnits="userSpaceOnUse">
<stop offset="0.12" stop-color="#A2CC39"/>
<stop offset="0.28" stop-color="#86C239"/>
<stop offset="0.87" stop-color="#219F38"/>
</linearGradient>
<linearGradient id="paint3_linear_388_3431" x1="23.0073" y1="12.0713" x2="31.6168" y2="14.6929" gradientUnits="userSpaceOnUse">
<stop offset="0.06" stop-color="#0290EA"/>
<stop offset="0.79" stop-color="#0C89CA"/>
</linearGradient>
<linearGradient id="paint4_linear_388_3431" x1="14.3233" y1="33.7519" x2="23.7031" y2="37.211" gradientUnits="userSpaceOnUse">
<stop offset="0.13" stop-color="#F1E813"/>
<stop offset="0.3" stop-color="#EAE616"/>
<stop offset="0.53" stop-color="#D8DF1F"/>
<stop offset="0.8" stop-color="#BAD52D"/>
<stop offset="0.98" stop-color="#A2CC39"/>
</linearGradient>
<linearGradient id="paint5_linear_388_3431" x1="11.1762" y1="25.2357" x2="15.0174" y2="15.376" gradientUnits="userSpaceOnUse">
<stop offset="0.07" stop-color="#A2CC39"/>
<stop offset="0.26" stop-color="#81C45E"/>
<stop offset="0.92" stop-color="#0FA7DF"/>
</linearGradient>
</defs>
</svg>
