<svg width="41" height="41" viewBox="0 0 41 41" fill="none" xmlns="http://www.w3.org/2000/svg">
<path d="M41 20.4987C41.0005 19.2669 40.8907 18.0375 40.6721 16.8253L36.2592 20.0764C36.2592 20.2179 36.2592 20.3573 36.2592 20.4987C36.2667 27.7559 31.3255 34.083 24.2835 35.8333C17.2415 37.5836 9.9136 34.306 6.52344 27.8896C3.13327 21.4732 4.55454 13.5716 9.96805 8.73917C15.3816 3.90672 23.3922 3.38879 29.3827 7.48391L33.3693 4.5464C25.9189 -1.46669 15.2988 -1.52041 7.78798 4.417C0.277164 10.3544 -2.1234 20.7011 2.00557 29.3399C6.13455 37.9786 15.693 42.6078 25.0298 40.4905C34.3665 38.3733 40.994 30.0737 40.9939 20.4987H41Z" fill="#21A049"/>
<path d="M36.7227 7.96094C37.6979 9.21926 38.5233 10.5869 39.1822 12.0361L20.506 25.8033L12.7031 20.9101V15.0249L20.506 19.918L36.7227 7.96094Z" fill="#21A049"/>
</svg>
