<svg width="24" height="24" viewBox="0 0 24 24" fill="none" xmlns="http://www.w3.org/2000/svg">
<path fill-rule="evenodd" clip-rule="evenodd" d="M8.5605 10.9395C7.974 10.353 7.026 10.353 6.4395 10.9395C5.853 11.526 5.853 12.474 6.4395 13.0605L9.4395 16.0605C9.732 16.353 10.116 16.5 10.5 16.5C10.884 16.5 11.268 16.353 11.5605 16.0605L17.5605 10.0605C18.147 9.474 18.147 8.526 17.5605 7.9395C16.974 7.353 16.026 7.353 15.4395 7.9395L10.5 12.879L8.5605 10.9395ZM12 21C12 21 3 18 3 7.5L12 3L21 7.5C21 18 12 21 12 21ZM22.3425 4.8165L13.3425 0.3165C12.9195 0.105 12.4605 0 12 0C11.5395 0 11.0805 0.105 10.6575 0.3165L1.6575 4.8165C0.642 5.325 0 6.363 0 7.5C0 17.5155 7.2285 22.572 11.0505 23.8455C11.358 23.949 11.679 24 12 24C12.321 24 12.6405 23.949 12.9495 23.8455C16.7715 22.572 24 17.5155 24 7.5C24 6.363 23.358 5.325 22.3425 4.8165Z" fill="#027184"/>
</svg>
