<svg width="18" height="15" viewBox="0 0 18 15" fill="none" xmlns="http://www.w3.org/2000/svg">
<path fill-rule="evenodd" clip-rule="evenodd" d="M17.7181 1.30161C17.4861 3.93694 16.4813 10.3319 15.9702 13.2836C15.7538 14.5329 15.3277 14.9515 14.9154 14.9926C14.0197 15.0817 13.3392 14.3526 12.4713 13.738C11.1133 12.7765 10.346 12.1782 9.02783 11.2401C7.5041 10.1555 8.49199 9.55979 9.35994 8.58587C9.58717 8.33067 13.5351 4.45189 13.6117 4.10034C13.6213 4.05607 13.6303 3.89201 13.5399 3.80543C13.4495 3.71884 13.3163 3.74879 13.2205 3.77223C13.0843 3.80543 10.9144 5.35421 6.7121 8.41855C6.0961 8.87557 5.53856 9.09757 5.03829 9.0865C4.48739 9.07348 3.42777 8.74992 2.63999 8.47324C1.6738 8.13406 0.905909 7.95438 0.972813 7.37823C1.00717 7.07811 1.38991 6.77147 2.12043 6.45768C6.61867 4.34057 9.61791 2.94543 11.1187 2.27098C15.4041 0.345975 16.2944 0.0112859 16.8748 0.000218584C17.6019 -0.0136481 17.7773 0.634507 17.7181 1.30161Z" fill="white"/>
</svg>
