<svg width="33" height="32" viewBox="0 0 33 32" fill="none" xmlns="http://www.w3.org/2000/svg">
<g clip-path="url(#clip0_360_172)">
<path fill-rule="evenodd" clip-rule="evenodd" d="M32.5341 16C32.5341 24.8366 25.2511 32 16.2671 32C7.28301 32 0 24.8366 0 16C0 7.16344 7.28301 0 16.2671 0C25.2511 0 32.5341 7.16344 32.5341 16ZM16.85 11.8119C15.2678 12.4592 12.1056 13.7989 7.36341 15.8311C6.59335 16.1323 6.18997 16.427 6.15324 16.7151C6.09118 17.202 6.71113 17.3937 7.55534 17.6548C7.67017 17.6903 7.78915 17.7271 7.91113 17.7661C8.7417 18.0317 9.85896 18.3424 10.4398 18.3547C10.9666 18.3659 11.5547 18.1523 12.2039 17.7138C16.6346 14.772 18.9218 13.2851 19.0654 13.253C19.1667 13.2304 19.3071 13.202 19.4022 13.2851C19.4973 13.3683 19.488 13.5258 19.4779 13.568C19.4165 13.8255 16.983 16.0508 15.7236 17.2024C15.331 17.5614 15.0526 17.816 14.9956 17.8742C14.8681 18.0045 14.7381 18.1277 14.6132 18.2461C13.8416 18.9778 13.263 19.5264 14.6453 20.4224C15.3095 20.8529 15.8411 21.209 16.3713 21.5642C16.9505 21.9521 17.5281 22.339 18.2755 22.8209C18.4659 22.9437 18.6478 23.0712 18.8249 23.1954C19.4989 23.668 20.1044 24.0926 20.8525 24.0248C21.2871 23.9855 21.7361 23.5835 21.9642 22.3845C22.5031 19.5509 23.5623 13.4113 23.8071 10.8813C23.8286 10.6596 23.8016 10.376 23.7799 10.2514C23.7583 10.1269 23.713 9.94948 23.5484 9.81813C23.3535 9.66258 23.0526 9.62978 22.9181 9.63211C22.3062 9.64271 21.3675 9.96376 16.85 11.8119Z" fill="white"/>
</g>
<defs>
<clipPath id="clip0_360_172">
<rect width="32.5341" height="32" fill="white"/>
</clipPath>
</defs>
</svg>
