<svg width="17" height="15" viewBox="0 0 17 15" fill="none" xmlns="http://www.w3.org/2000/svg">
<path fill-rule="evenodd" clip-rule="evenodd" d="M16.9892 1.30161C16.7538 3.93694 15.7347 10.3319 15.2162 13.2836C14.9968 14.5329 14.5645 14.9515 14.1463 14.9926C13.2378 15.0817 12.5476 14.3526 11.6672 13.738C10.2898 12.7765 9.51155 12.1782 8.17448 11.2401C6.62894 10.1555 7.63097 9.55979 8.51135 8.58587C8.74183 8.33067 12.7463 4.45189 12.824 4.10034C12.8337 4.05607 12.8429 3.89201 12.7512 3.80543C12.6595 3.71884 12.5244 3.74879 12.4272 3.77223C12.289 3.80543 10.0881 5.35421 5.82559 8.41855C5.20077 8.87557 4.63525 9.09757 4.12782 9.0865C3.56902 9.07348 2.49423 8.74992 1.69517 8.47324C0.715147 8.13406 -0.0637405 7.95438 0.00412159 7.37823C0.0389699 7.07811 0.42719 6.77147 1.16817 6.45768C5.73083 4.34057 8.77301 2.94543 10.2953 2.27098C14.6421 0.345975 15.5452 0.0112859 16.1338 0.000218584C16.8713 -0.0136481 17.0493 0.634507 16.9892 1.30161Z" fill="white"/>
</svg>
